<svg xmlns="http://www.w3.org/2000/svg" width="600" height="600"><path fill="none" d="M0 0h600v600H0zm467 15c-2.29 3.435-2.178 4.985-2 9l-3.25-1c-4.72-1.259-7.54-1.406-11.75 1l-1-2v4l-4-1-1 4-6-9-4 1c.665 4.389 2.188 7.981 4 12l-1.937.813c-2.394 1.074-2.394 1.074-3.063 4.187l-4-1-3 10h-12v4l12 4-3 4c-.184 2.99-.184 2.99.25 6.125l.328 3.195c.278 2.644.278 2.644 1.422 4.68h2v2l3 1 1 5h2l.938 2.875c.936 2.986.936 2.986 2.062 5.125.2 6.645.2 6.645.166 9.97.089 2.914.214 5.304 2.155 7.577 1.497 1.232 3.086 2.349 4.679 3.453l1.938 2.25c2.926 2.483 5.282 2.615 9.062 2.75 2.372-.806 2.372-.806 4-2v-2l3.313-.187c3.737-.417 3.737-.417 5.375-2.938 1.531-3.356 1.814-6.013 2-9.687l.199-3.52L469 92h3l1 3c4.892-.42 6.8-2.4 10-6l1.426-1.594c2.712-2.798 2.712-2.798 3.574-6.406h3l1-5 3-1-1-6 2.117-.113 2.758-.2 2.742-.175c2.745-.3 2.745-.3 4.383-3.512l-1-2h-5v-2l3-1-2-3h-2l-1-5h-2c-.986-4.068-1.304-7.82-1-12a100 100 0 0 1 3-4c-.217-2.208-.217-2.208-1-4-4.13.567-4.13.567-8 2l-.875-2.25A82 82 0 0 0 485 25l-3 1 2 1v2l-11-7-1 1-1-7zm-200 90c-4.892 4.936-4.892 4.936-8 11l-1.506-.839C246.903 109.31 236.689 104.237 225 101l-2.574-.738C217.08 98.89 211.496 98.294 206 99c-2.42 2.42-2.461 3.593-3.008 6.926-4.885 27.943-16.603 50.598-30.347 75.047-19.374 34.62-30.388 72.207-19.426 111.547 4.524 15.116 11.966 32.02 23.508 43.144C178 337 178 337 178 339l-3.437.438c-3.37.174-3.37.174-4.563 1.562.067 2.348.2 4.66.375 7l.135 2.142c.247 3.854.57 7.687.994 11.526l.22 2.291q.21 2.188.498 4.367c.18 2.03.18 2.03-.222 5.674-2.707 2.61-2.707 2.61-4.372 3.786-7.6 5.667-12.942 17.16-14.628 26.214-1.176 11.72.385 21.277 7.25 30.938 4.635 5.513 9.36 7.971 16.508 8.656l2.418.24L181 444l.152 1.848c.233 2.78.478 5.56.723 8.34l.238 2.908.254 2.822.222 2.587c.454 2.753 1.179 4.992 2.411 7.495 2.379 1.244 2.379 1.244 5.125 1.813l2.758.707L195 473v2l-2 .125c-7.843 2.288-14.381 9.37-19 15.875-3.132 7.387-3.533 16.486-.95 24.094 1.746 3.5 3.782 6.654 5.95 9.906l-1.687.188c-3.796 1.333-6.525 4.235-8.313 7.812-.56 4.058-.859 6.573 1.281 10.129 6.041 7.235 13.65 11.227 22.406 14.371l2.495.898c14.057 4.906 28.347 7.707 43.068 9.79l3.308.469c20.463 2.703 40.939 3.727 61.567 3.655l3.349-.005c18.014-.05 35.669-.767 53.526-3.307l3.85-.536C401.903 563.52 401.903 563.52 434 544c2.016-3.52 2.49-5.915 2-10-1.919-3.375-3.973-6.524-7-9h-2l1.313-3.062.82-1.965c.765-1.74 1.651-3.426 2.555-5.098 2.544-5.893 2.395-13.797.292-19.773L431 493l2.719.14c19.1.553 37.356-5.345 51.984-17.96 9.138-8.672 22.523-22.348 23.485-35.805-3.344-6.687-12.49-8.888-19.13-11.201C477.513 424.046 464.26 421.03 451 422c.095-.81.19-1.622.29-2.457 1.296-12.956-.19-24.69-8.613-35.192-2.342-2.706-4.785-5.297-7.286-7.855-4.37-4.562-4.37-4.562-4.434-7.406l.285-2.152.294-2.402.339-2.536c.852-7.039 1.412-13.899 1.125-21-2.39-1.106-2.39-1.106-5-2l-2 1c2.589-3.97 5.312-7.712 8.25-11.437 9.072-12.112 14.608-25.06 18.75-39.563l1.035-3.457c9.88-39.47-5.709-77.896-24.96-111.531-11.801-20.72-21.722-40.828-25.696-64.466-.836-5.987-.836-5.987-4.379-10.546-5.466-.508-10.48.227-15.812 1.5l-2.176.516c-10.037 2.556-20.85 6.335-29.438 12.234C349 115 349 115 347 115c-1.075-1.268-2.082-2.595-3.062-3.937C334.019 98.408 322.018 86.082 308 78c-14.224 0-31.555 17.648-41 27m156.063 8c-2.854 4.15-2.773 6.03-2.063 11 1.27 2.686 1.27 2.686 4 4 4.315.76 7.743.736 11.563-1.5 2.013-3.502 2.313-6.621 1.437-10.5-1.896-3.147-1.896-3.147-5-5-4.412-.788-6.222-.53-9.937 2" id="svg-layer-0" style="pointer-events: all; fill: none;"/><path fill="#4E4065" d="M310 79a70 70 0 0 1 6.188 4.438l1.794 1.426c5.49 4.488 10.556 9.388 15.58 14.386l2.308 2.29c4.189 4.244 7.817 8.5 11.13 13.46 3.962-1.495 7.629-3.343 11.375-5.312C370.484 103.502 385.199 97.548 399 99c2.632 2.745 3.506 5.207 4.21 8.895l.575 2.87.59 3.047c5.429 26.028 17.661 48.119 30.702 71.085 17.604 31.167 27.52 68.383 18.177 103.892Q452.642 290.9 452 293l-.633 2.085c-4.357 13.791-11.172 26.833-20.64 37.802-1.84 2.252-3.287 4.59-4.727 7.113l1.813-.625C430 339 430 339 433 341c.363 1.898.363 1.898.313 4.375l-.036 2.957c-.22 2.91-.586 5.628-1.086 8.492-1.894 9.447-1.894 9.447.657 18.301 2.559 2.48 2.559 2.48 5.402 4.656 8.36 6.746 12.317 17.328 13.5 27.719.358 4.972-.023 9.575-.75 14.5l1.922-.14c17.306-.67 41.34 3.978 55.078 15.14 1.26 3.276 1.085 4.757-.082 8.094-10.496 20.659-25.353 36.915-47.818 44.552-9.795 3.078-18.859 3.884-29.1 3.354l.977 2.11c2.27 6.413 2.063 14.23-.414 20.577-10.55 19.969-35.082 29.303-55.438 35.938l-2.159.712c-43.343 14.23-43.343 14.23-57.529 8.038-6.783-4.189-9.109-9.064-10.945-16.605-.655-3.69-.703-7.034-.492-10.77h-5l-.078 2.527c-.392 7.785-.95 15.031-6.344 21.063-6.155 5.473-11.897 5.756-19.806 5.633-5.857-.346-11.434-1.425-17.147-2.723l-3.657-.816C226.491 552.566 192.754 543.148 176 520l-1.309-1.75c-4.337-6.963-3.827-16.142-2.101-23.902 3.305-8.668 11.124-15.536 19.41-19.348h3v-2l-2.117-.48-2.758-.707-2.742-.668C185 470 185 470 183.89 467.746c-.871-2.685-1.283-5.022-1.524-7.828l-.254-2.822-.238-2.909-.262-2.966q-.316-3.61-.613-7.221l-1.824-.166-2.418-.24-2.386-.229c-6.11-.94-10.185-3.745-14.122-8.428-6.826-9.606-8.57-19.27-7.25-30.937 2.316-10.767 7.715-18.981 15-27l2.32-1.383c2.072-1.629 2.072-1.629 1.887-5.066a154 154 0 0 0-.394-4.238l-.183-2.259A551 551 0 0 0 171 357c-.27-2.978-.516-5.957-.75-8.937l-.36-3.965L170 341c3.228-2.152 4.284-2.2 8-2-1.378-3.01-3.006-5.342-5.125-7.875-19.064-24.217-26.363-55.093-23.668-85.452.594-4.972 1.598-9.813 2.793-14.673l.554-2.285c5.605-22.314 16.48-42.231 27.904-62.028 10.649-18.562 18.507-36.735 22.089-57.921l.516-3.016.41-2.64C204 101 204 101 206 99c17.574-3.243 38.438 8.577 53 17l.637-1.586C266.558 102.158 294.777 74.264 310 79m-13.437 11.25c-.706.445-1.412.89-2.14 1.347-6.675 4.34-12.4 9.429-18.035 15.03a215 215 0 0 1-3.9 3.736c-3.59 3.424-5.832 5.88-7.488 10.637.86.643 1.72 1.286 2.605 1.95 12.133 9.213 22.852 18.984 31.326 31.733.98 1.468 2.02 2.897 3.069 4.317h2c1.44-1.81 1.44-1.81 2.938-4.187C316.153 141.314 327 129.623 341 121c-.549-4.026-2.58-6.035-5.312-8.937-2.346-2.508-4.626-4.984-6.758-7.676-2.92-3.61-6.386-6.408-9.93-9.387l-2.824-2.45-2.926-2.487-2.734-2.34c-5.324-3.646-9.207-.483-13.954 2.527M210 106l-.41 3.2c-3.76 26.841-15.652 49.735-29.144 72.926-19.29 33.474-29.954 68.708-20.883 107.187 3.448 12.146 9.034 24.508 16.773 34.527C178 326 178 326 179.602 328.629c1.638 2.542 3.034 4.482 5.398 6.371 2.808.4 5.016.06 7.8-.46 3.84-.648 7.505-.654 11.387-.603l3.918.028L211 334l-.848-1.477A511 511 0 0 1 206 325l-1.75-3.187c-11.202-21.246-13.694-45.693-6.9-68.813 1.711-5.264 4.025-10.14 6.65-15l1.367-2.598c12.973-23.123 35.837-37.87 60.94-45.063a247 247 0 0 1 6.693-1.651l2.14-.5c2.995-.664 5.911-1.192 8.97-1.45 2.697-.243 4.517-.424 6.89-1.738 2.384-3.797 3.686-7.736 5-12l1.188-2.574c1.006-3.006.818-4.432-.188-7.426-4.653-7.728-10.834-14.462-17-21-.55-.603-1.1-1.207-1.668-1.828-9.793-10.35-21.785-17.666-34.332-24.172l-2.863-1.496c-5.478-2.668-11.13-4.555-16.95-6.317l-2.175-.665c-4.116-1.188-7.683-1.76-12.012-1.522m173 1.813-2.36.669c-21.426 6.467-38.71 18.17-54.64 33.518l-2.137 1.945C312.604 154.497 304.591 167.71 299 182v3l3.453.078c29.241.934 57.416 9.138 79.547 28.922l2.996 2.402C400.386 229.711 408.672 250.181 411 270c1.178 22.056-3.306 42.07-15.46 60.621-1.63 2.047-1.63 2.047-1.54 3.379 4.018.373 8.037.663 12.063.938l3.435.322c6.102.47 6.102.47 11.697-1.572 1.842-1.786 3.32-3.597 4.805-5.688l1.352-1.742c1.287-1.714 2.477-3.463 3.648-5.258l1.284-1.964c15.53-24.32 20.818-54.188 15.091-82.536-5.521-24.931-17.825-47.475-30.375-69.5-10.731-18.855-18.52-38.333-21-60-4.653-1.427-8.452-.478-13 .813M269 196l-3.668 1.063C251.793 201.468 238.499 208.316 228 218l-2.578 2.371c-14.537 13.949-24.869 33.153-25.625 53.625C199.45 293.624 203.81 311.563 215 328l1.203 1.835c2.754 3.75 4.885 5.556 9.492 6.513q2.71.393 5.43.714 2.963.45 5.922.926l3.014.483c13.867 2.495 26.732 7.591 38.939 14.529l3.082 1.75c5.93 3.583 10.832 7.722 15.727 12.625 2.019 1.848 2.019 1.848 4.296 1.563 2.146-1.062 3.216-2.124 4.77-3.938 15.933-16.472 42.967-25.766 65.261-27.865 7.984-.722 7.984-.722 14.868-4.49 2.417-3.097 4.215-6.147 5.996-9.645l1.938-3.375c9.92-18.187 13.126-40.017 8.093-60.195-7.626-25.362-23.335-42.31-46.054-55.137-26.572-14.07-59.218-16.835-87.977-8.293m-82 145v2q10.965 3.539 21.938 7.063l3.352 1.077c12.905 4.145 25.826 8.23 38.8 12.157l3.406 1.032a3684 3684 0 0 0 16.262 4.884l5.89 1.775 2.705.794c4.103 1.244 7.38 2.322 10.647 5.218 3.58 1.358 7.214 1.073 11 1a672 672 0 0 0-3.34-3.32 133 133 0 0 1-3.539-3.735C279.323 355.193 258.492 347.987 238 343l-2.212-.548C222.138 339.224 200.5 336.5 187 341m118 33a106 106 0 0 0-3 4c5.852-.209 10.458-1.444 15.902-3.61 10.541-4.074 21.346-7.255 32.16-10.515l6.456-1.961q6.545-1.99 13.092-3.975a7328 7328 0 0 0 26.268-8.028 7263 7263 0 0 1 7.566-2.318l4.552-1.398 2.082-.635c3.536-1.088 3.536-1.088 6.922-2.56v-2c-34.911-10.495-88.056 6.945-112 33m-128-27q.413 6.39.852 12.778.214 3.251.412 6.502c.231 3.634.53 7.258.861 10.884q.188 2.225.316 4.455c.482 9.408.482 9.408 5.275 17.25 3.147 2.387 3.147 2.387 6.393 4.27 5.089 3.275 8.003 8.197 9.891 13.861.671 7.43.583 13.86-4 20-2.804 2.664-5.554 4.32-9 6-.099 5.157-.066 10.291.313 15.438l.175 2.433c.627 2.609 1.498 3.394 3.512 5.129a123 123 0 0 0 8.04 2.898l2.476.823c2.7.894 5.404 1.774 8.109 2.654l5.632 1.852c5.91 1.94 11.826 3.858 17.743 5.773l2.957.96A4487 4487 0 0 0 254 486.452q2.672.855 5.343 1.714 3.737 1.199 7.48 2.384l2.205.711c4.324 1.358 8.467 2.215 12.971 2.738.074-17.258-.121-34.51-.372-51.766q-.066-4.538-.125-9.077c-.24-18.4-.63-36.773-1.503-55.157-23.267-7.55-46.613-14.832-70-22l-2.418-.741a3888 3888 0 0 0-13.067-3.98 3165 3165 0 0 1-5.72-1.74l-3.416-1.027-2.951-.892c-2.495-.744-2.495-.744-5.428-.62m240.2 1.766-3.59 1.18-1.929.641c-3.477 1.156-6.962 2.29-10.447 3.425l-2.248.733c-8.82 2.866-17.682 5.597-26.548 8.317l-2.477.762a3315 3315 0 0 1-26.074 7.903l-2.15.641q-4.98 1.486-9.966 2.955l-3.482 1.032-3.04.896c-2.193.544-2.193.544-3.249 1.749a194 194 0 0 0-.205 7.855l-.03 2.5q-.047 4.131-.081 8.262l-.063 5.788q-.066 6.105-.124 12.212-.073 7.704-.158 15.407c-.231 21.326-.424 42.65-.339 63.976a504 504 0 0 0 22.14-6.441l3.134-.983q4.989-1.566 9.976-3.139l6.869-2.16c12.183-3.835 24.365-7.677 36.527-11.58q1.971-.632 3.942-1.261 2.664-.853 5.326-1.713l2.936-.945c2.102-.589 2.102-.589 3.15-1.778.227-1.558.394-3.124.535-4.691l.264-2.862.264-3.01.275-3.021q.337-3.708.662-7.416l-2.047-1.215c-6.34-4.04-9.976-7.436-11.953-14.785a633 633 0 0 1-1-6c-14.455 3.462-28.716 7.562-43 11.666q-4.602 1.32-9.207 2.63l-2.85.825-2.634.75-2.31.662C340 439 340 439 337 439c-1.362-2.724-1.325-5.111-1.535-8.152l-.264-3.795-.264-3.99-.275-3.885c-.502-7.409-.766-14.754-.662-22.178l1.723-.308c7.291-1.372 14.354-3.325 21.476-5.387l5.659-1.615q6.909-1.97 13.81-3.964 3.897-1.125 7.8-2.235a1187 1187 0 0 0 7.305-2.103l3.359-.951 2.93-.843C401 379 401 379 408 379v27l9-6 2.964-1.173c3.696-3.316 3.251-8.324 3.618-13.057l.315-3.35c.327-3.535.622-7.07.916-10.608q.323-3.593.654-7.185.801-8.811 1.533-17.627c-3.885 0-6.163.555-9.8 1.766M430 381c-1.287 2.573-1.168 4.502-1.187 7.375l-.043 2.898c.233 2.757.82 4.376 2.23 6.727l-2.668 1.574-3.52 2.113-1.751 1.03c-6.1 3.687-11.576 8.399-14.061 15.283-.778 4.953-.543 8.778 1.5 13.375 3.8 3.99 7.387 6.333 12.96 6.855 5.539-.23 9.53-1.726 13.782-5.28 5.843-6.48 8.166-14.495 8.028-23.044-.977-10.527-5.307-19.057-12.27-26.906zm-257 1c-8.763 8.813-13.312 18.644-13.312 31.094.148 7.05 1.446 12.638 6.148 18 4.186 3.913 8.167 6.858 14.101 6.93 5.738-.414 9.78-2.524 13.708-6.825 2.506-4.067 1.82-8.585 1.355-13.199-2.175-7.394-9.497-12.693-15.937-16.5-2.794-1.647-2.794-1.647-5.063-1.5l.5-1.937c.93-5.702 1.445-10.93-1.5-16.063m114 0c-.131 25.743.02 51.478.406 77.218l.091 6.463q.085 6.11.187 12.217l.05 3.7c.064 8.262.064 8.262 1.266 16.402 4.98 3.644 10.67 4.459 16.664 3.633 3.861-.85 3.861-.85 7.336-2.633 2.27-5.934 2.305-11.593 2.319-17.892l.03-3.255c.031-3.533.048-7.066.065-10.6q.028-3.683.059-7.368c.051-6.452.09-12.905.128-19.357.04-6.59.091-13.179.141-19.768q.145-19.38.258-38.76l-2.03.429-2.689.555-2.654.554c-5.837 1.026-11.13.652-16.908-.554l-2.69-.555zm107.496 4.453-3.489.96-3.784 1.052-3.871 1.069q-4.06 1.121-8.118 2.247-5.202 1.442-10.404 2.878l-9.92 2.743-3.778 1.045-3.499.97-3.084.855A133 133 0 0 0 339 402c.14 3.48.289 6.958.438 10.438l.119 2.95.127 2.92.11 2.65c.273 4.03.735 8.032 1.206 12.042q9.713-2.661 19.421-5.334 3.296-.907 6.593-1.81C385.1 422.546 385.1 422.546 401 415c.243-2.776.426-5.53.563-8.312l.128-2.455c.316-6.414.422-12.812.309-19.233-2.677 0-4.92.738-7.504 1.453m51.48 44.156c-1.444 2.066-1.444 2.066-2.68 4.29-4.24 6.871-13.004 8.37-20.296 10.101l-1 11 3.5-1.187q2.75-.91 5.5-1.813l3.738-1.242c10.645-3.479 20.96-6.193 32.262-5.758l-1 4-3.664.48c-14.14 1.968-28.526 4.923-40.336 13.52a134 134 0 0 0-3 6c-2.626 1.413-5.116 2.149-8 3v2c2.118 1.454 2.118 1.454 4.75 2.875 3.659 2.043 6.304 4.167 9.25 7.125 13.472 4.49 30.013-.015 42.313-5.75 5.808-3.103 10.773-6.887 15.687-11.25l2.082-1.762c4.521-4.11 7.707-8.737 10.856-13.925l1.181-1.946c1.996-3.422 3.405-6.417 3.881-10.367-27.725-12.034-27.725-12.034-55.023-9.39m-248.788 49.516-1.893.965c-7.18 3.766-13.403 8.057-16.295 15.91-1.664 6.408-1.185 11.624 1.598 17.629 12.487 21.114 46.57 30.485 68.556 36.19 18.499 5.37 18.499 5.37 36.846 3.181 5.38-4.902 6.575-10.196 7.205-17.317.097-2.336.124-4.658.108-6.995l-.013-2.499c-.147-7.99-1.162-15.294-5.05-22.376-3.228-2.6-5.106-3.099-9.25-2.813-5.031 3.16-6.499 8.023-7.812 13.563-.819 4.13-1.507 8.281-2.188 12.437h-4v-17c-7.753-4.315-16.098-6.836-24.5-9.562q-3.327-1.089-6.653-2.181-2.056-.675-4.114-1.343c-4.63-1.511-9.182-3.18-13.733-4.914l1-4c9.274 1.418 17.965 4.492 26.813 7.5l4.505 1.512 6.34 2.136c2.759.938 5.477 1.908 8.169 3.022 2.593.99 3.644.926 6.173-.17 1.772-1.354 1.772-1.354 3-3v-2q-12.41-4.118-24.826-8.214a6449 6449 0 0 1-11.528-3.814q-5.562-1.845-11.127-3.676-2.123-.7-4.244-1.407c-1.98-.66-3.963-1.311-5.946-1.961l-3.418-1.13c-5.498-1.506-8.895-.147-13.724 2.327m193.878-1.168-2.009.663c-2.169.718-4.331 1.455-6.495 2.192q-2.257.753-4.515 1.502a3034 3034 0 0 0-9.339 3.117c-6.738 2.254-13.503 4.423-20.269 6.594q-4.928 1.584-9.853 3.174L333 498c0 3.517.824 4.371 3 7 4.955-1.615 9.866-3.302 14.75-5.121C380.025 489 380.025 489 389 489l-1 5-2.022.592c-16 4.715-31.543 10.082-46.978 16.408l1 16-4 1c-1.723-1.723-1.538-4.058-1.9-6.373-1.443-10.264-1.443-10.264-7.1-18.627-3.423-1.656-3.423-1.656-7-1-5.728 4.557-7.072 10.965-8 18-.244 3.564-.338 7.116-.375 10.688l-.042 2.662c.05 6.945.95 13.66 5.48 19.15 5.326 4.124 12.523 3.068 18.937 2.5 29.069-4.032 67.31-14.663 87-38 4.145-5.615 3.842-12.31 3-19-3.233-9.683-10.731-14.642-19.473-19.02-5.766-2.236-9.624-1.987-15.46-.023M297 507q.464 4.157.938 8.313l.263 2.38.264 2.295.238 2.11c.277 2.118.277 2.118 1.297 4.902h5q.755-4.155 1.5-8.312l.434-2.381.41-2.295.38-2.11c.348-2.077.348-2.077.276-4.902z" id="svg-layer-1" style="pointer-events: all;"/><path fill="#F8DF94" d="m333 195 3.727 1.031c24.376 7.47 46.788 22.4 59.308 45.079 10.552 20.66 11.67 42.873 4.965 64.89-3.469 10.406-9.133 21.133-17 29-2.042.297-4.085.588-6.131.848-26.046 3.373-52.505 11.696-71.678 30.332-2.184 1.814-3.354 2.72-6.191 2.82a217 217 0 0 1-4.656-4.773c-17.382-16.513-43.056-24.538-66.281-27.664-8.824-1.29-8.824-1.29-11.688-4.375-1.16-1.864-1.16-1.864-2.375-4.188l-1.934-3.043c-11.645-18.597-16.091-40.718-11.879-62.332 5.392-21.894 18.948-41.389 38.16-53.363C267.032 192.7 301.476 186.216 333 195m-81 68c-3.896 5.41-3.812 10.544-3 17 1.349 3.312 3.48 5.48 6 8 5.113.803 5.113.803 9.602-1.203 4.382-5.075 4.84-9.269 4.398-15.797-1.925-5.758-1.925-5.758-6-10-4.74-1.443-7.142-1.128-11 2m88 0c-3.924 5.437-3.658 10.52-3 17 1.525 4.212 2.28 5.52 6 8 4.07.536 4.07.536 8 0 3.099-2.402 4.762-5.287 6-9 .664-6.708-.296-11.267-4.312-16.812-4.579-3.222-8.519-2.569-12.688.812m-55 28c-1.309 1.697-1.309 1.697-2 4 1.26 4.095 3.865 5.776 7.438 7.813 6.637 3.057 13.146 3.424 20.183 1.453 4.594-1.84 7.846-3.862 10.379-8.266v-4c-2.24-.95-2.24-.95-5-1l-2.187 2.313c-3.896 3.722-7.486 4.513-12.813 4.687-5.584-.922-9.207-2.77-13-7z" id="svg-layer-2" style="pointer-events: all;"/><path fill="#E6CCE0" d="m396 107 .445 3.305c3.514 24.304 13.675 44.633 25.395 65.941 19.628 35.707 34.854 72.153 23.81 113.532-4.374 14.945-11.766 28.224-21.65 40.222l-1.977 2.863c-4.929 3.484-10.006 2.403-15.836 1.95l-3.544-.213A543 543 0 0 1 394 334l.986-1.767C408.723 307.575 415.455 282.865 408 255c-7.09-24.68-23.363-42.28-45.27-54.733C342.667 189.386 321.59 185.712 299 185c.634-4.623 2.482-8.504 4.563-12.625l1.082-2.145c5.322-10.29 12.429-18.838 20.355-27.23l2.043-2.238C341.163 125.847 374.148 101.38 396 107M210 106c29.902.965 56.673 21.642 76.313 42.5 4.431 5.005 9.02 10.317 11.687 16.5-.176 2.371-.176 2.371-1 5l-1.086 3.48-1.289 3.708-1.273 3.73C292 184 292 184 289 186c-2.69.48-5.357.883-8.062 1.25-20.762 3.183-39.709 11.42-55.938 24.75l-2.164 1.668C209.124 224.73 200.596 241.281 196 258l-.684 2.453c-5.117 22.445-.317 46.96 11.47 66.508a138 138 0 0 0 3.148 4.535C211 333 211 333 211 334l-2.895-.035c-1.292-.01-2.585-.018-3.917-.027l-2.074-.04c-4.212-.04-7.754.469-11.864 1.477-2.637.258-2.637.258-5.25-.375-17.749-15.27-26.905-43.71-28.84-66.324-2.218-37.067 13.476-68.492 31.465-99.801C198.872 149.102 207.546 128.805 210 106" id="svg-layer-3" style="pointer-events: all;"/><path fill="#AB8FB5" d="M177 347c6.554 1.197 12.86 2.738 19.203 4.766l8.161 2.57c4.97 1.574 9.946 3.132 14.921 4.691l3.126.981c12.756 3.997 25.55 7.866 38.346 11.732q4.284 1.294 8.567 2.592l2.585.778c5.865 1.777 5.865 1.777 8.091 2.89.91 19.138 1.282 38.265 1.532 57.42q.062 4.54.129 9.081c.239 16.5.41 32.997.339 49.499-7.123-1.265-13.911-3.08-20.79-5.309l-3.06-.978c-3.26-1.044-6.518-2.097-9.775-3.15l-6.732-2.169c-12.24-3.952-24.472-7.933-36.651-12.071q-2.047-.696-4.095-1.384a887 887 0 0 1-5.557-1.9l-3.082-1.056C190 465 190 465 189 463c-.517-3.317-.739-6.654-1-10l-.344-2.707c-.221-2.64-.305-4.72.344-7.293 1.858-1.726 3.692-2.721 5.957-3.852 3.976-2.234 5.65-5.971 7.043-10.148.898-8.426-.04-15.016-5-22-2.561-2.768-5.342-5.102-8.668-6.904-2.822-1.675-4.894-3.005-6.144-6.12-.477-2.472-.754-4.896-.965-7.406l-.307-2.753a565 565 0 0 1-.853-8.692 2000 2000 0 0 0-.627-5.824c-1.573-14.826-1.573-14.826-1.436-22.301M427 348c-.438 6.857-.957 13.704-1.532 20.55a436 436 0 0 0-.502 6.987c-1.256 19.416-1.256 19.416-5.514 24.513-2.8 1.779-5.314 2.92-8.452 3.95l-3 2v-27c-5.492 0-8.59.206-13.622 1.652l-1.88.532c-2.028.576-4.052 1.165-6.076 1.753q-2.126.608-4.253 1.211-5.574 1.588-11.143 3.196a6367 6367 0 0 1-17.874 5.117q-3.12.892-6.234 1.795l-3.814 1.092-3.36.969C337 397 337 397 334 397c-.153 8.726.32 17.36.938 26.063l.263 3.99.502 7.232c.134 2.678.134 2.678 1.297 4.715 7.642-1.378 15.043-3.325 22.5-5.477l3.508-1q5.498-1.57 10.992-3.148 5.538-1.588 11.078-3.17 3.437-.98 6.871-1.97l3.117-.89 2.749-.789C400 422 400 422 402 422l.262 1.688c1.063 5.775 2.65 10.959 6.738 15.312l8 5-2 21c-8.147 3.4-16.44 6.157-24.852 8.809q-2.14.679-4.28 1.359a8043 8043 0 0 1-11.217 3.55q-5.637 1.783-11.272 3.573c-7.458 2.365-14.917 4.728-22.38 7.078q-3.232 1.021-6.461 2.05l-4.391 1.39-2.079.665C323.227 495 323.227 495 321 495c-.106-23.373.185-46.74.464-70.111l.18-15.57q.176-15.16.356-30.319c4.542-1.727 9.065-3.395 13.709-4.834l3.197-.995 3.403-1.05 3.6-1.117q4.78-1.482 9.561-2.958 3.943-1.22 7.885-2.442c16.207-5.02 32.423-10.01 48.678-14.874l3.592-1.078 3.04-.906c5.242-1.674 5.242-1.674 8.335-.746" id="svg-layer-4" style="pointer-events: all;"/><path fill="#B4CCB7" d="m406 479 2.285.86c8.083 4.05 14.733 9.311 17.715 18.14.918 6.09 1.12 11.931-2.062 17.375A68 68 0 0 1 421 519l-1.434 1.758c-19.221 21.378-60.626 32.704-88.152 34.644-5.922.215-10.487.272-15.414-3.402-6.461-10.615-5.436-27.169-2.812-38.937 1.456-4.73 2.904-7.954 6.812-11.063 3.5-.375 3.5-.375 7 1 6.412 5.774 6.801 15.968 8 24 1.946.59 1.946.59 4 1l1-1c-.09-2.701-.237-5.37-.437-8.062l-.159-2.3q-.196-2.82-.404-5.638c12.493-5.046 24.966-9.825 37.871-13.71 4.118-1.25 8.114-2.742 12.129-4.29v-4c-7.129.605-13.624 2.496-20.437 4.625l-3.466 1.068c-7.553 2.376-14.898 5.037-22.108 8.311-4.695 2.094-4.695 2.094-7.989.996-1.687-2.562-1.687-2.562-3-5 11.2-4.657 22.715-8.344 34.24-12.102q3.896-1.273 7.78-2.578c3.76-1.263 7.53-2.492 11.3-3.718l3.492-1.187c6.593-2.106 10.658-2.908 17.188-.415M217.394 479.95l3.7 1.213 3.933 1.31 4.073 1.34q5.331 1.757 10.658 3.527c3.632 1.204 7.266 2.401 10.9 3.6Q261.332 494.46 272 498c-1.152 2.468-2.048 4.048-4 6-4.06-.375-7.654-1.466-11.457-2.89l-3.099-1.146-3.256-1.214c-7.619-2.786-15.231-5.536-23-7.875l-2.06-.642c-3.36-.98-5.81-1.554-9.128-.233.123 1.962.123 1.962 1 4 2.143 1.187 2.143 1.187 4.863 1.895l3.101.946 3.349.971q3.42 1.043 6.84 2.09l3.475 1.055c4.954 1.533 9.854 3.204 14.747 4.918l2.517.866 2.319.814 2.01.702C262 509 262 509 265 511c.22 2.95.28 5.684.188 8.625l-.042 2.43A539 539 0 0 1 265 528h4l.516-3.254.734-4.308.332-2.135c1.055-6.023 3.38-10.196 6.73-15.303 1.688-1 1.688-1 5.125-1 3.563 1 3.563 1 5.813 2.813 4.321 7.87 5.018 16.05 5.063 24.875l.016 2.373c-.08 6.609-.464 13.862-4.454 19.376-3.86 3.441-7.888 4.582-12.996 4.55-2.296-.215-4.543-.541-6.817-.924l-2.588-.418c-27.916-4.85-65.74-14.534-84.286-37.875-3.71-5.528-4.849-10.645-3.875-17.254 2.44-8.932 8.985-14.014 16.687-18.516 8.147-4.604 13.476-3.999 22.394-1.05" id="svg-layer-5" style="pointer-events: all;"/><path fill="#C5C0CB" d="m426 523 1 2 1.813.813c3.41 1.851 5.468 4.749 7.187 8.187.418 3.677.167 5.666-1.5 9-16.505 19.806-50.71 22.868-74.5 26l-3.304.458c-17.853 2.393-35.576 2.83-53.571 2.855l-3.213.01c-20.654.038-41.205-1.232-61.662-4.135l-3.664-.519C214.541 564.711 189.68 560.93 174 547l-1.703-1.492c-2.615-2.658-3.62-4.934-3.797-8.57.513-4.042.866-5.88 3.5-8.938 2.272-1.54 4.544-2.749 7-4l1.398 1.066a517 517 0 0 0 4.239 3.172 178 178 0 0 1 4.383 3.367c19.245 14.6 44.391 21.725 67.605 26.895l3.408.774c9.664 2.023 21.526 4.342 30.42-1.075 6.335-4.91 7.587-11.48 8.672-19.074l.508-3.492L300 533h5l.516 3.254.734 4.308.332 2.135c1.136 6.488 3.117 11.519 8.48 15.678 12.695 7.023 30.86 1.15 43.938-2.375 36.805-10.543 36.805-10.543 67-33" id="svg-layer-6" style="pointer-events: all;"/><path fill="#AB8FB5" d="m287 382 2.03.429 2.689.555 2.654.554c5.83 1.025 11.133.651 16.908-.554l2.69-.555L316 382q-.126 21.332-.288 42.664-.076 9.906-.134 19.81-.056 9.562-.136 19.122-.029 3.645-.045 7.292a2326 2326 0 0 1-.078 10.22l-.007 3.04c-.063 5.315-.415 9.86-2.312 14.852-4.715 3.33-10.44 3.22-15.937 2.313-3.384-.716-5.132-1.359-8.063-3.313-1.555-6.533-1.225-13.42-1.316-20.102l-.064-3.91a4674 4674 0 0 1-.152-10.454q-.045-3.24-.095-6.478c-.373-25.02-.5-50.034-.373-75.056" id="svg-layer-7" style="pointer-events: all;"/><path fill="#B4CCB7" d="M460.941 428.755C475.12 430.44 487.811 434.647 501 440c-4.441 16.656-16.749 29.331-31.258 38.02-10.113 5.636-21.255 8.155-32.742 8.23l-2.406.063c-4.758.031-7.69-.328-11.594-3.313l-2.098-1.535-3.937-3.063c-1.92-1.37-3.83-2.408-5.965-3.402v-2l1.898-.7 2.477-.988 2.46-.949c2.381-1.186 2.381-1.186 3-3.754 1.715-3.842 4.775-4.969 8.415-6.671l2.171-1.044c11.12-5.183 22.462-7.494 34.579-8.894l1-4c-6.077-.181-11.61.422-17.562 1.625l-2.625.522c-7.047 1.497-13.453 3.795-20.04 6.681C424 456 424 456 422 456l1-11 2.633-.734c10.182-2.472 10.182-2.472 17.523-9.297 4.3-7.446 9.898-7.024 17.785-6.214" id="svg-layer-8" style="pointer-events: all;"/><path fill="#E6CCDF" d="M306.61 85.996c3.026 1.271 5.141 2.936 7.64 5.067l2.906 2.468L320 96l2.469 2.094c4.974 4.293 9.326 8.866 13.531 13.906l1.543 1.73C341 117.652 341 117.652 341 121c-1.984 1.656-1.984 1.656-4.75 3.5-13.07 9.216-24.277 20.541-32.25 34.5-3.655-1.218-4.074-2.263-6.125-5.437C294.041 147.904 289.69 142.96 285 138l-1.93-2.09c-5.474-5.735-11.652-10.29-18.07-14.91 1.487-5.492 5.32-8.813 9.25-12.687l2.156-2.14C282.778 99.98 289.491 94.754 297 90l1.78-1.186c2.672-1.687 4.63-2.813 7.83-2.818" id="svg-layer-9" style="pointer-events: all;"/><path fill="none" d="M476.008 39.25c5.043 3.842 8.158 8.703 9.992 14.75 1.225 9.468.21 17.21-5.426 24.96-2.21 2.708-4.133 4.77-7.137 6.61-3.642 3.631-3.784 7.53-4.5 12.493q-.4 2.708-.847 5.41l-.348 2.414c-.974 2.773-2.235 3.649-4.742 5.113-2.75.188-2.75.188-5 0v2c-2.555 1.738-4.124 2.002-7.25 2.063-5.931-1.681-9.483-5.796-13.75-10.063-.644-5.362.229-10.697 1-16 .803-6.883-1.025-10.585-4.59-16.484-3.433-6.125-3.237-13.273-1.473-19.954 2.561-6.788 7.438-12.51 13.747-16.082 10.823-4.344 20.453-3.376 30.324 2.77M441 49c-3.59 4.488-4.142 9.387-4 15 .914 4.648 2.703 8.642 5.125 12.688 1.845 3.259 2.515 5.62 2.875 9.312l4 1q.757-3.123 1.5-6.25l.844-3.516c.789-3.337.789-3.337.656-7.234l-2.437-1.437C447 67 447 67 446.125 64.436 446 62 446 62 447 60h5l4 8c2.401-.196 2.401-.196 5-1l1.438-2.062c.515-.64 1.03-1.28 1.562-1.938 3.188-.25 3.188-.25 6 0v6l-3.812.688c-2.289.695-2.289.695-4.188 2.312-2.057 5.125-3 10.483-3 16l5 1 1.031-1.469c2.8-3.87 5.635-7.233 9.156-10.469 4.617-4.528 6.592-8.89 6.934-15.351-.383-7.196-3.745-12.771-8.996-17.586C461.475 36.883 449.049 39.294 441 49" id="svg-layer-10" style="pointer-events: all; fill: none;"/><path fill="none" d="m467 15 4 1 1 7h3c2.262 1.312 2.262 1.312 4.688 3l2.449 1.688L484 29v-2l-2-1h4c3 5.75 3 5.75 3 8l1.688-1.062c2.85-1.156 4.397-.748 7.312.062-.75 4.75-.75 4.75-3 7-.236 4.17.017 7.944 1 12h2l1 5 3 1 1 3h-3v2h5l1 3c-2.495 2.495-3.673 2.36-7.125 2.625l-2.758.227L494 69l1 6-3 1-1 5h-3l-.562 2.125c-1.706 3.412-3.742 5.095-6.684 7.445-1.794 1.391-1.794 1.391-3.29 3.11C476 95 476 95 473 95c-1.746-2.62-2.387-4.038-3-7 .675-.557 1.35-1.114 2.047-1.687 7.014-6.001 12.35-11.692 13.226-21.317.232-8.116-.253-14.395-5.273-20.996-5.747-5.772-12.686-9.04-20.812-9.437-8.176.326-14.979 2.643-20.688 8.624-4.919 6.159-7.136 12.587-6.86 20.481.834 5.41 3.09 10.427 6.11 14.957 2.74 5.207 1.184 11.773.25 17.375h-1l-.367-1.758C435.19 87.514 435.19 87.514 433 81l-2-1a78 78 0 0 1-2-5h-2v-2l-2-1c-.974-2.942-1.361-5.994-1.75-9.062l-.36-2.598C423 58 423 58 426 55l-12-4v-4h12l3-10 4 1 1.375-2.5L436 33h2l-.91-1.828-1.152-2.422-1.16-2.39c-.864-2.62-.708-3.809.222-6.36 2.704.364 3.744.681 5.484 2.848l1.266 2.215 1.297 2.222L444 29l1-4 4 1 1-4v2l2.063-1.625C455 21 455 21 458.625 21.75L462 23l3 1-.125-2.812C465 18 465 18 467 15" id="svg-layer-11" style="pointer-events: all; fill: none;"/><path fill="#AB8FB5" d="M402 385c.177 10.034-.377 19.991-1 30-5.043 2.783-10.086 4.314-15.605 5.813l-2.788.772q-4.395 1.214-8.795 2.415l-5.853 1.617A6143 6143 0 0 1 352 430l-3.815 1.043q-3.593.98-7.185 1.957-.504-6.343-1-12.687c-.095-1.199-.19-2.397-.29-3.631l-.272-3.506-.254-3.222A106 106 0 0 1 339 402q8.45-2.43 16.9-4.852 2.862-.82 5.722-1.644c10.025-2.883 20.057-5.727 30.14-8.399l2.435-.648C399.755 385 399.755 385 402 385m-16.312 16.996c-3.483 2.597-5.41 2.33-9.688 2.067-5.054-.3-7.913-.196-12 2.937l-1 2-1.977-.395c-5.15-.939-5.15-.939-10.023.442-1.825 1.508-1.825 1.508-4 3.953l1 5c2.189-.469 3.92-.954 5.867-2.082 2.59-1.115 3.79-.827 6.508-.23 2.372.411 2.372.411 4.625.312 1.413-1.253 2.824-2.513 4.14-3.867 3.531-2.151 7.787-1.219 11.79-1.055 4.347-.11 5.918-1.175 9.07-4.078l1.938-1.5c1.318-1.497 1.318-1.497.75-3.687L392 400c-4.004-.436-4.004-.436-6.312 1.996" id="svg-layer-12" style="pointer-events: all;"/><path fill="#EDEBEC" d="M417 341v2c-22.147 7.276-44.407 14.178-66.692 21.021-19.62 5.856-19.62 5.856-38.87 12.791-3.398 1.174-5.876 1.455-9.438 1.188 18.685-22.997 48.935-34.24 77.824-37.732 27.125-2.29 27.125-2.29 37.176.732M268.773 353.207c11.84 5.924 21.045 13.262 30.227 22.793l2 2c-5.553.34-9.003-.633-14-3-6.334-2.486-12.764-4.562-19.258-6.59l-3.29-1.033q-5.288-1.659-10.577-3.315-3.64-1.141-7.28-2.284-5.5-1.727-11-3.453a15626 15626 0 0 1-37.822-11.92L187 343v-2c24.123-8.041 59.794 1.737 81.773 12.207" id="svg-layer-13" style="pointer-events: all;"/><path fill="none" d="M470 43c5.461 3.363 8.297 7.379 10.41 13.41 1.504 6.602-.088 11.811-3.41 17.59-2.375 2.598-2.375 2.598-5 5.063-3.309 3.116-5.829 5.93-8 9.937l-5-1q.465-3.157.938-6.312l.527-3.551C461 75 461 75 462 72c1.848-.95 1.848-.95 4.063-1.687l2.222-.762L470 69v-6c-2.832-.418-2.832-.418-6 0a105 105 0 0 0-4 5h-4l-4-8h-5c-.778 2.302-.778 2.302-1 5 1.734 3.12 2.56 3.853 6 5-.452 5.915-1.158 11.352-3 17l-4-1-.687-3.437c-.82-3.386-2.034-5.928-3.875-8.876-3.29-5.66-4.242-11.533-2.993-17.988 1.513-4.617 3.83-7.519 7.555-10.699l1.938-1.687c7.488-4.766 15.421-4.269 23.062-.313" id="svg-layer-14" style="pointer-events: all; fill: none;"/><path fill="#B4CBB7" d="M430 381c9.09 8.838 14.766 17.968 15.375 30.813-.196 8.498-3.3 16.26-9.375 22.187-4.367 3.618-9.458 4.27-15 4-4.481-1.226-7.315-3.28-10.5-6.625-2.46-5.534-2.592-10.219-.605-15.96C413.908 407.531 420.5 404.084 428 400l3-2-.988-1.648c-1.214-2.822-1.245-4.916-1.2-7.977l.02-2.914C429 383 429 383 430 381" id="svg-layer-15" style="pointer-events: all;"/><path fill="#B4CCB7" d="M173 382c3.185 5.551 2.566 11.932 1 18l2.223.832c7.184 3.021 13.383 7.687 17.777 14.168 1.656 4.969 2.318 11.05.129 15.95-2.977 3.874-6.515 5.743-11.129 7.05-6.042.253-10.312-1.058-15-5-6.369-6.517-8.164-12.37-8.5-21.25.259-11.83 5.212-21.462 13.5-29.75" id="svg-layer-16" style="pointer-events: all;"/><path fill="#4E4065" d="M351 261c3.421 3.056 5.742 6.395 6.203 11.05.106 5.111-.359 8.526-3.203 12.95l-1.187 1.875c-3.103 1.925-6.35 1.86-9.813 1.125-3.22-2.535-4.704-4.113-6-8-.994-11.289-.994-11.289 1.75-15.625 3.986-4.208 6.557-5.234 12.25-3.375M263 261c4.482 4.482 5.79 7.216 6.25 13.313-.332 4.891-1.894 8.474-4.437 12.625-3.148 1.844-6.361 1.917-9.813 1.062-2.725-2.179-4.441-4.882-6-8-1.027-11.247-1.027-11.247 1.75-15.625 3.986-4.208 6.557-5.234 12.25-3.375M388 400c2.813.25 2.813.25 5 1-.258 3.488-1.265 4.242-3.937 6.688-4.365 3.295-5.923 3.333-11.313 3.062-4.522-.201-4.522-.201-8.59 1.395l-1.348 1.418C365 416 365 416 362.567 416.003a80 80 0 0 1-5.199-.901c-3.081-.133-4.05.98-6.367 2.898-2.25-.312-2.25-.312-4-1 .271-3.256.852-4.819 2.938-7.375 3.996-2.12 6.401-1.386 10.753-.727 2.521.356 2.521.356 4.809-1.773L367 405c3.741-1.87 8.415-.83 12.52-.645 4.092-.417 5.464-1.683 8.48-4.355M285 291c2.813.417 3.985.986 6.125 2.938 4.05 2.904 7.918 3.828 12.875 4.062 4.262-.765 7.168-2.144 10.188-5.25L316 291c2.75.25 2.75.25 5 1-.195 4.182-.71 5.703-3.687 8.75-6.453 4.722-13.527 5.207-21.313 4.25-4.954-1.618-8.798-3.631-12.25-7.562-.75-2.438-.75-2.438.063-4.75z" id="svg-layer-17" style="pointer-events: all;"/><path fill="none" d="M433 111c2.93 1.995 4.645 3.428 5.445 6.973.186 3.31-.232 5.657-1.882 8.527-3.82 2.236-7.248 2.26-11.563 1.5-2.562-1.5-2.562-1.5-4-4-.71-4.97-.791-6.85 2.063-11 3.715-2.53 5.525-2.788 9.937-2" id="svg-layer-18" style="pointer-events: all; fill: none;"/><path fill="#B4C7B8" d="M297 507h11q-.466 3.594-.937 7.188l-.264 2.04c-.477 3.623-1.03 7.2-1.799 10.772h-5q-.755-4.155-1.5-8.312l-.434-2.381-.41-2.295-.38-2.11C297 510 297 510 297 507" id="svg-layer-19" style="pointer-events: all;"/></svg>